<?xml version="1.0" encoding="utf-8"?>
<!-- Generator: Adobe Illustrator 16.0.0, SVG Export Plug-In . SVG Version: 6.00 Build 0)  -->
<!DOCTYPE svg PUBLIC "-//W3C//DTD SVG 1.1//EN" "http://www.w3.org/Graphics/SVG/1.1/DTD/svg11.dtd">
<svg version="1.1" id="Layer_1" xmlns="http://www.w3.org/2000/svg" xmlns:xlink="http://www.w3.org/1999/xlink" x="0px" y="0px"
	 width="228.781px" height="149.75px" viewBox="0 0 228.781 149.75" enable-background="new 0 0 228.781 149.75"
	 xml:space="preserve">
<g>
	<path fill="#D1D3D4" d="M228.715,78.353c0-43.102-35.065-78.167-78.166-78.167c-20.67,0-40.158,7.991-54.876,22.502l4.914,4.984
		c13.4-13.211,31.144-20.486,49.962-20.486c39.24,0,71.166,31.926,71.166,71.167H228.715z"/>
</g>
<path fill="#00B3F0" d="M136.397,71.329H6.972c0-39.354,31.903-71.258,71.258-71.258c35.131,0,64.102,25.463,70.186,58.874
	C150.647,71.196,136.397,71.329,136.397,71.329z"/>
<g>
	<path fill="#F37021" d="M44.599,111.885c-1.449-2.189-3.334-4.56-5.35-5.7c-2.016-1.142-3.949-1.714-5.809-1.714
		c-2.273,0-4.082,0.548-5.426,1.642c-1.344,1.096-2.379,2.44-3.102,4.037c-0.723,1.596-1.188,3.237-1.395,4.924
		c-0.207,1.689-0.363,3.078-0.465,4.172v8.439c-0.105,1.279-0.238,6.027-0.395,6.71c-0.16,0.683-0.449,1.32-0.871,1.913
		s-1,0.89-1.734,0.89c-0.738,0-1.293-0.248-1.66-0.752c-0.367-0.503-0.656-1.048-0.867-1.641s-0.344-1.187-0.395-1.779
		c-0.055-0.593-0.078-0.979-0.078-1.165c0-2.642-0.023-8.799-0.063-10.943c-0.043-2.145-0.063-4.266-0.063-6.365
		c0-2.096-0.023-4.31-0.063-6.634c-0.043-2.323-0.105-4.992-0.188-8.002l-0.125-12.995c0-0.545,0.074-1.345,0.23-2.393
		s0.438-2.117,0.852-3.213c0.414-1.094,1.031-2.052,1.859-2.872c0.824-0.821,2.012-1.231,3.559-1.231
		c0.516,0,1.137,0.117,1.859,0.345s1.344,0.435,1.859,0.614c0.516,0.275,1.113,0.62,1.785,1.03c0.672,0.414,1.316,0.938,1.938,1.576
		c1.754,1.92,3.148,3.771,4.184,5.555c1.031,1.785,2.117,3.544,3.254,5.278c0.828,1.372,1.809,2.927,2.945,4.665
		c1.137,1.737,2.434,4.903,3.777,6.41"/>
	<path fill="#F37021" d="M44.563,102.593c1.449,2.189,3.327,4.49,5.343,5.631c2.016,1.142,3.949,1.714,5.809,1.714
		c2.273,0,4.082-0.548,5.426-1.642c1.344-1.096,2.379-2.44,3.102-4.037c0.723-1.596,1.188-3.237,1.395-4.924
		c0.207-1.689,0.363-3.078,0.465-4.172v-8.439c0.105-1.279,0.238-6.027,0.395-6.71c0.16-0.683,0.449-1.32,0.871-1.913
		s1-0.89,1.734-0.89c0.738,0,1.293,0.248,1.66,0.752c0.367,0.503,0.656,1.048,0.867,1.641s0.344,1.187,0.395,1.779
		c0.055,0.593,0.078,0.979,0.078,1.165c0,2.642,0.023,8.799,0.063,10.943c0.043,2.145,0.063,4.266,0.063,6.365
		c0,2.096,0.023,4.31,0.063,6.634c0.043,2.323,0.105,4.992,0.188,8.002l0.125,12.995c0,0.545-0.074,1.345-0.23,2.393
		s-0.438,2.117-0.852,3.213c-0.414,1.094-1.031,2.052-1.859,2.872c-0.824,0.821-2.012,1.231-3.559,1.231
		c-0.516,0-1.137-0.117-1.859-0.345s-1.344-0.435-1.859-0.614c-0.516-0.275-1.113-0.62-1.785-1.03
		c-0.672-0.414-1.316-0.938-1.938-1.576c-1.754-1.92-3.148-3.771-4.184-5.555c-1.031-1.785-2.117-3.544-3.254-5.278
		c-0.828-1.372-1.809-2.927-2.945-4.665c-1.137-1.737-2.434-4.903-3.777-6.41"/>
</g>
<g>
	<path fill="#D1D3D4" d="M7.114,119.175l-0.05-47.827h-7v74.688v3.5h3.5h74.683l0.421-6.975l-0.438,6.973
		c18.565,0,36.561-6.622,50.672-18.647l-4.54-5.328c-12.846,10.947-29.229,16.976-46.132,16.976l-0.421,6.975l0.438-6.973
		l-47.106-0.024l-3.469-0.002c-6.092-0.136-11.251-1.968-14.905-5.621C8.821,132.939,6.976,125.919,7.114,119.175"/>
</g>
<g>
	<path fill="none" d="M208.469,124.843c1.066,0.434,2.197,0.648,3.396,0.648s2.414-0.199,3.646-0.6
		c1.23-0.398,2.346-0.982,3.346-1.75c0.998-0.766,1.797-1.717,2.396-2.85c0.598-1.133,0.898-2.434,0.898-3.9
		c0-1.732-0.367-3.182-1.1-4.35c-0.734-1.166-1.533-2.115-2.4-2.85s-1.668-1.334-2.4-1.801c-0.16-0.102-0.296-0.198-0.421-0.294
		c-2.583,5.864-5.926,11.316-9.916,16.226C206.691,123.953,207.539,124.465,208.469,124.843z"/>
	<path fill="#00B3F0" d="M181.396,123.472c-0.469-0.734-1.055-1.354-1.758-1.854s-1.559-0.752-2.563-0.752
		c-0.938,0-1.725,0.219-2.361,0.652s-1.156,0.969-1.559,1.604s-0.686,1.318-0.854,2.053s-0.25,1.402-0.25,2.004
		s0.1,1.303,0.301,2.104c0.201,0.803,0.52,1.555,0.955,2.256c0.434,0.701,1.02,1.285,1.758,1.752
		c0.736,0.469,1.607,0.701,2.613,0.701c1.674,0,2.945-0.65,3.816-1.953s1.307-2.656,1.307-4.059c0-0.668-0.117-1.402-0.352-2.203
		S181.865,124.206,181.396,123.472z"/>
	<path fill="#00B3F0" d="M197.252,111.298c0.066-1.395,0.285-2.541,0.654-3.439c0.367-0.898,0.854-1.58,1.455-2.045
		s1.289-0.781,2.059-0.947s1.59-0.25,2.457-0.25c0.133,0,0.5,0.018,1.1,0.051s1.232,0.117,1.9,0.25
		c0.666,0.133,1.266,0.301,1.801,0.5c0.533,0.199,0.801,0.432,0.801,0.697c0,0.199-0.102,0.4-0.301,0.6
		c-0.201,0.199-0.367,0.367-0.5,0.5c-0.334,0.266-0.852,0.615-1.551,1.049s-1.316,1.016-1.85,1.746c-1,1.133-1.668,2.217-2,3.248
		c-0.334,1.031-0.5,2.113-0.5,3.246c0,1.398,0.248,2.646,0.748,3.744c0.5,1.1,1.182,2.031,2.047,2.797
		c0.111,0.099,0.229,0.187,0.343,0.279c3.99-4.909,7.333-10.361,9.916-16.226c-0.448-0.341-0.679-0.645-0.679-0.905
		c0-0.199,0.115-0.35,0.35-0.451c0.232-0.1,0.498-0.184,0.799-0.25c0.08-0.018,0.15-0.014,0.229-0.027
		c3.428-8.342,5.33-17.472,5.33-27.05H92.434c0,0-14.25,0.133-12.019,12.384c5.531,30.37,29.973,54.168,60.761,58.249
		c-0.219-0.137-0.428-0.295-0.622-0.481c-0.734-0.699-1.334-1.518-1.801-2.451s-0.816-1.867-1.049-2.801
		c-0.234-0.934-0.418-1.668-0.551-2.203c-0.133-0.799-0.316-1.816-0.551-3.051s-0.482-2.418-0.748-3.553
		c-0.268-1-0.502-1.967-0.701-2.9s-0.533-2.201-1-3.803c-0.066-0.266-0.35-1.166-0.85-2.701s-1.018-3.252-1.551-5.154
		c-0.533-1.9-1.033-3.785-1.5-5.652s-0.699-3.236-0.699-4.104c0-0.332,0.1-0.783,0.299-1.35s0.6-0.852,1.201-0.852
		c0.732,0,1.35,0.502,1.85,1.506s0.967,2.26,1.4,3.764c0.434,1.506,0.9,3.145,1.4,4.918s1.082,3.414,1.75,4.918
		c0.666,1.506,1.465,2.76,2.398,3.764s2.1,1.506,3.502,1.506c1.332,0,2.5-0.451,3.5-1.357s1.85-1.979,2.549-3.219
		s1.266-2.465,1.699-3.672s0.75-2.111,0.951-2.717c0.133-0.535,0.281-1.172,0.449-1.91c0.166-0.738,0.316-1.441,0.451-2.113
		c0.066-0.201,0.148-0.637,0.25-1.309c0.1-0.67,0.266-1.357,0.5-2.061c0.232-0.703,0.531-1.342,0.898-1.912s0.85-0.855,1.451-0.855
		c0.666,0,1.082,0.285,1.25,0.852c0.166,0.568,0.25,0.986,0.25,1.252c0,0.602-0.117,1.287-0.35,2.055
		c-0.234,0.768-0.484,1.52-0.75,2.254c-0.268,0.734-0.535,1.436-0.801,2.104c-0.268,0.668-0.4,1.17-0.4,1.502
		c0,0.135-0.033,0.285-0.1,0.451c-0.066,0.168-0.1,0.352-0.1,0.551c-0.066,0.201-0.168,0.568-0.301,1.102
		c0,0.201-0.066,0.502-0.199,0.902c-0.133,0.936-0.301,2.07-0.5,3.406c-0.201,1.336-0.434,2.572-0.699,3.705
		c-0.334,1.336-0.684,2.789-1.051,4.359s-0.752,3.088-1.15,4.557c-0.199,0.668-0.467,1.738-0.799,3.207
		c-0.334,1.469-0.801,2.955-1.4,4.457c-0.602,1.504-1.367,2.822-2.301,3.957c-0.624,0.76-1.347,1.241-2.149,1.493
		c2.01,0.171,4.041,0.266,6.097,0.266c11.97,0,23.241-2.965,33.144-8.179c-0.664-0.397-1.195-0.665-1.592-0.799
		c-0.801-0.332-1.617-0.617-2.449-0.852c-0.834-0.234-1.717-0.352-2.65-0.352c-2,0-4.084,0.584-6.25,1.75
		c-2.168,1.168-4.217,2.852-6.15,5.051c-0.133,0.133-0.35,0.283-0.65,0.449c-0.301,0.168-0.584,0.25-0.85,0.25
		c-0.668,0-1.102-0.299-1.301-0.898s-0.299-1.066-0.299-1.4c0-0.133,0.049-0.617,0.15-1.451c0.1-0.832,0.217-1.516,0.35-2.049
		c0.066-0.332,0.133-0.717,0.199-1.15s0.168-0.883,0.301-1.348c0.332-1.928,0.832-3.889,1.5-5.883
		c0.666-1.994,1.383-3.988,2.15-5.982c0.766-1.994,1.482-3.988,2.15-5.982c0.666-1.994,1.166-3.988,1.5-5.984
		c0.133-0.797,0.314-1.76,0.549-2.891c0.232-1.129,0.615-2.209,1.15-3.24c0.533-1.031,1.232-1.912,2.1-2.643
		s1.967-1.098,3.301-1.098c1.6,0,2.967,0.615,4.1,1.846s1.998,2.811,2.6,4.738c0.332,0.865,0.633,1.83,0.9,2.895
		c0.266,1.064,0.533,2.029,0.801,2.893c0.199,0.666,0.398,1.398,0.598,2.195c0.199,0.799,0.434,1.664,0.701,2.594
		c0.332,1.332,0.75,2.912,1.25,4.74s0.982,3.607,1.451,5.336c0,0.066,0.199,0.699,0.6,1.896c0.302,0.907,0.625,1.921,0.966,3.039
		c2.2-1.513,4.304-3.152,6.316-4.896l-0.083-7.206L197.252,111.298z"/>
	<path fill="#636466" d="M143.253,149.616c0.441,0,0.854-0.086,1.251-0.21c-1.117-0.095-2.227-0.214-3.328-0.359
		C141.779,149.424,142.471,149.616,143.253,149.616z"/>
	<path fill="#FFFFFF" d="M146.653,147.913c0.934-1.135,1.699-2.453,2.301-3.957c0.6-1.502,1.066-2.988,1.4-4.457
		c0.332-1.469,0.6-2.539,0.799-3.207c0.398-1.469,0.783-2.986,1.15-4.557s0.717-3.023,1.051-4.359
		c0.266-1.133,0.498-2.369,0.699-3.705c0.199-1.336,0.367-2.471,0.5-3.406c0.133-0.4,0.199-0.701,0.199-0.902
		c0.133-0.533,0.234-0.9,0.301-1.102c0-0.199,0.033-0.383,0.1-0.551c0.066-0.166,0.1-0.316,0.1-0.451c0-0.332,0.133-0.834,0.4-1.502
		c0.266-0.668,0.533-1.369,0.801-2.104c0.266-0.734,0.516-1.486,0.75-2.254c0.232-0.768,0.35-1.453,0.35-2.055
		c0-0.266-0.084-0.684-0.25-1.252c-0.168-0.566-0.584-0.852-1.25-0.852c-0.602,0-1.084,0.285-1.451,0.855s-0.666,1.209-0.898,1.912
		c-0.234,0.703-0.4,1.391-0.5,2.061c-0.102,0.672-0.184,1.107-0.25,1.309c-0.135,0.672-0.285,1.375-0.451,2.113
		c-0.168,0.738-0.316,1.375-0.449,1.91c-0.201,0.605-0.518,1.51-0.951,2.717s-1,2.432-1.699,3.672s-1.549,2.313-2.549,3.219
		s-2.168,1.357-3.5,1.357c-1.402,0-2.568-0.502-3.502-1.506s-1.732-2.258-2.398-3.764c-0.668-1.504-1.25-3.145-1.75-4.918
		s-0.967-3.412-1.4-4.918c-0.434-1.504-0.9-2.76-1.4-3.764s-1.117-1.506-1.85-1.506c-0.602,0-1.002,0.285-1.201,0.852
		s-0.299,1.018-0.299,1.35c0,0.867,0.232,2.236,0.699,4.104s0.967,3.752,1.5,5.652c0.533,1.902,1.051,3.619,1.551,5.154
		s0.783,2.436,0.85,2.701c0.467,1.602,0.801,2.869,1,3.803s0.434,1.9,0.701,2.9c0.266,1.135,0.514,2.318,0.748,3.553
		s0.418,2.252,0.551,3.051c0.133,0.535,0.316,1.27,0.551,2.203c0.232,0.934,0.582,1.867,1.049,2.801s1.066,1.752,1.801,2.451
		c0.194,0.187,0.403,0.345,0.622,0.481c1.102,0.146,2.211,0.265,3.328,0.359C145.307,149.154,146.029,148.673,146.653,147.913z"/>
	<path fill="#636466" d="M183.752,141.497c0.666,0.402,1.166,0.77,1.5,1.104c0.867,0.803,1.666,1.656,2.4,2.559
		c0.732,0.902,1.5,1.723,2.301,2.457c0.199,0.125,0.432,0.219,0.699,0.281c0.266,0.063,0.467,0.094,0.6,0.094
		c0.734,0,1.234-0.266,1.5-0.797s0.4-1.031,0.4-1.498c0-0.531-0.201-1.514-0.6-2.943c-0.4-1.43-0.834-2.926-1.301-4.488
		c-0.113-0.378-0.224-0.745-0.333-1.102c-2.298,1.579-4.693,3.023-7.175,4.33C183.747,141.494,183.749,141.495,183.752,141.497z"/>
	<path fill="#FFFFFF" d="M189.354,132.228c-0.469-1.729-0.951-3.508-1.451-5.336s-0.918-3.408-1.25-4.74
		c-0.268-0.93-0.502-1.795-0.701-2.594c-0.199-0.797-0.398-1.529-0.598-2.195c-0.268-0.863-0.535-1.828-0.801-2.893
		c-0.268-1.064-0.568-2.029-0.9-2.895c-0.602-1.928-1.467-3.508-2.6-4.738s-2.5-1.846-4.1-1.846c-1.334,0-2.434,0.367-3.301,1.098
		s-1.566,1.611-2.1,2.643c-0.535,1.031-0.918,2.111-1.15,3.24c-0.234,1.131-0.416,2.094-0.549,2.891
		c-0.334,1.996-0.834,3.99-1.5,5.984c-0.668,1.994-1.385,3.988-2.15,5.982c-0.768,1.994-1.484,3.988-2.15,5.982
		c-0.668,1.994-1.168,3.955-1.5,5.883c-0.133,0.465-0.234,0.914-0.301,1.348s-0.133,0.818-0.199,1.15
		c-0.133,0.533-0.25,1.217-0.35,2.049c-0.102,0.834-0.15,1.318-0.15,1.451c0,0.334,0.1,0.801,0.299,1.4s0.633,0.898,1.301,0.898
		c0.266,0,0.549-0.082,0.85-0.25c0.301-0.166,0.518-0.316,0.65-0.449c1.934-2.199,3.982-3.883,6.15-5.051
		c2.166-1.166,4.25-1.75,6.25-1.75c0.934,0,1.816,0.117,2.65,0.352c0.832,0.234,1.648,0.52,2.449,0.852
		c0.396,0.134,0.928,0.401,1.592,0.799c2.481-1.307,4.877-2.751,7.175-4.33c-0.341-1.118-0.664-2.132-0.966-3.039
		C189.553,132.927,189.354,132.294,189.354,132.228z M181.496,132.038c-0.871,1.303-2.143,1.953-3.816,1.953
		c-1.006,0-1.877-0.232-2.613-0.701c-0.738-0.467-1.324-1.051-1.758-1.752c-0.436-0.701-0.754-1.453-0.955-2.256
		c-0.201-0.801-0.301-1.502-0.301-2.104s0.082-1.27,0.25-2.004s0.451-1.418,0.854-2.053s0.922-1.17,1.559-1.604
		s1.424-0.652,2.361-0.652c1.004,0,1.859,0.252,2.563,0.752s1.289,1.119,1.758,1.854s0.82,1.504,1.055,2.305
		s0.352,1.535,0.352,2.203C182.803,129.382,182.367,130.735,181.496,132.038z"/>
	<path fill="#636466" d="M225.943,124.843c0.77-1.234,1.455-2.5,2.057-3.801s0.902-2.783,0.902-4.451
		c0-1.531-0.287-2.98-0.857-4.348s-1.359-2.551-2.367-3.551s-2.197-1.799-3.568-2.4c-1.371-0.6-2.857-0.9-4.457-0.9
		c-0.066,0-0.234,0-0.5,0c-0.195,0-0.41,0.037-0.623,0.072c-0.225,0.549-0.46,1.092-0.698,1.634
		c0.125,0.096,0.261,0.192,0.421,0.294c0.732,0.467,1.533,1.066,2.4,1.801s1.666,1.684,2.4,2.85c0.732,1.168,1.1,2.617,1.1,4.35
		c0,1.467-0.301,2.768-0.898,3.9c-0.6,1.133-1.398,2.084-2.396,2.85c-1,0.768-2.115,1.352-3.346,1.75
		c-1.232,0.4-2.447,0.6-3.646,0.6s-2.33-0.215-3.396-0.648c-0.93-0.378-1.777-0.89-2.554-1.52c-2.626,3.23-5.535,6.219-8.68,8.944
		l0.116,9.974c0,0.133,0.016,0.449,0.049,0.949s0.117,1.035,0.25,1.602s0.348,1.066,0.646,1.5c0.297,0.434,0.713,0.648,1.244,0.648
		s0.961-0.25,1.293-0.75s0.564-1.066,0.697-1.699s0.232-1.217,0.299-1.75s0.1-0.834,0.1-0.9c0.066-0.6,0.148-1.166,0.248-1.699
		s0.217-1,0.35-1.4c0.4-2,1.303-3.582,2.707-4.75c1.404-1.166,2.875-1.75,4.414-1.75c1.469,0,2.756,0.387,3.859,1.156
		s2.107,1.758,3.01,2.963c0.902,1.207,1.721,2.479,2.457,3.818c0.734,1.34,1.42,2.613,2.055,3.818
		c0.635,1.207,1.287,2.195,1.955,2.965s1.371,1.154,2.107,1.154c0.535,0,0.953-0.166,1.254-0.5s0.451-0.768,0.451-1.303
		c0-0.6-0.201-1.334-0.602-2.201c-0.402-0.867-0.836-1.852-1.305-2.953s-0.902-2.303-1.303-3.604
		c-0.402-1.301-0.602-2.652-0.602-4.055c0-1.801,0.301-3.387,0.902-4.756C224.49,127.378,225.174,126.077,225.943,124.843z"/>
	<path fill="#FFFFFF" d="M205.915,123.323c-0.114-0.093-0.231-0.181-0.343-0.279c-0.865-0.766-1.547-1.697-2.047-2.797
		c-0.5-1.098-0.748-2.346-0.748-3.744c0-1.133,0.166-2.215,0.5-3.246c0.332-1.031,1-2.115,2-3.248c0.533-0.73,1.15-1.313,1.85-1.746
		s1.217-0.783,1.551-1.049c0.133-0.133,0.299-0.301,0.5-0.5c0.199-0.199,0.301-0.4,0.301-0.6c0-0.266-0.268-0.498-0.801-0.697
		c-0.535-0.199-1.135-0.367-1.801-0.5c-0.668-0.133-1.301-0.217-1.9-0.25s-0.967-0.051-1.1-0.051c-0.867,0-1.688,0.084-2.457,0.25
		s-1.457,0.482-2.059,0.947s-1.088,1.146-1.455,2.045c-0.369,0.898-0.588,2.045-0.654,3.439l-0.1,13.764l0.083,7.206
		C200.38,129.542,203.289,126.554,205.915,123.323z"/>
	<path fill="#FFFFFF" d="M215.502,105.741c-0.234,0.102-0.35,0.252-0.35,0.451c0,0.261,0.23,0.564,0.679,0.905
		c0.238-0.542,0.474-1.085,0.698-1.634c-0.078,0.014-0.148,0.01-0.229,0.027C216,105.558,215.734,105.642,215.502,105.741z"/>
</g>
</svg>
